HayghinDaedric.sfdir
StartChar: exclam
Encoding: 33 33 59
Width: 260
Flags: W
HStem: -108 170<73.2227 187.942>
VStem: 45 170<-79.7773 34.7771 446.823 659.117>
LayerCount: 2
Fore
SplineSet
130 -108 m 0
 107 -108 87 -99 70 -83 c 0
 53 -66 45 -46 45 -23 c 0
 45 1 53 21 70 38 c 0
 87 54 107 62 130 62 c 0
 154 62 175 54 191 38 c 0
 207 21 215 1 215 -23 c 0
 215 -46 207 -66 191 -83 c 0
 175 -99 154 -108 130 -108 c 0
130 683 m 0
 156 683 176 676 191 662 c 0
 206 647 213 626 213 599 c 0
 213 575 209 540 202 496 c 0
 195 451 183 391 167 315 c 1
 146 162 l 1
 115 162 l 1
 94 315 l 1
 78 391 66 451 59 496 c 0
 52 540 48 575 48 599 c 0
 48 626 56 647 70 662 c 0
 85 676 105 683 130 683 c 0
EndSplineSet
Validated: 1
EndChar
StartChar: quotesingle
Encoding: 39 39 65
Width: 340
Flags: W
HStem: 530 279
VStem: 183 151<564.773 625.231>
LayerCount: 2
Fore
SplineSet
45 781 m 0
 37 787 36 795 41 803 c 0
 48 810 56 812 65 809 c 0
 175 770 273 729 305 681 c 0
 324 653 334 631 334 607 c 0
 334 576 281 530 258 530 c 0
 238 530 199 546 183 579 c 0
 152 642 128 719 45 781 c 0
EndSplineSet
Validated: 1
EndChar
StartChar: comma
Encoding: 44 44 70
Width: 220
Flags: W
HStem: -193 279
VStem: 70 139<-22.125 61.3071>
LayerCount: 2
Fore
SplineSet
-22 -165 m 0
 43 -99 38 -26 70 42 c 0
 85 74 131 86 149 86 c 0
 168 86 209 45 209 22 c 0
 209 -3 199 -42 184 -64 c 0
 151 -113 86 -149 -2 -193 c 0
 -10 -197 -18 -195 -24 -188 c 0
 -31 -180 -28 -171 -22 -165 c 0
EndSplineSet
Validated: 1
EndChar
StartChar: period
Encoding: 328 46 72
Width: 339
VWidth: 1048
Flags: HW
HStem: -92 86<126.121 223.544> 120 87<126.121 223.544>
VStem: 29 81<10.0024 104.051> 240 81<9.502 104.552>
LayerCount: 2
Fore
SplineSet
176 -92 m 0
 97 -92 29 -24 29 57 c 0
 29 138 97 207 176 207 c 0
 256 207 321 138 321 57 c 0
 321 -24 256 -92 176 -92 c 0
176 120 m 0
 139 120 110 92 110 57 c 0
 110 22 139 -6 176 -6 c 0
 212 -6 240 22 240 57 c 0
 240 92 212 120 176 120 c 0
EndSplineSet
Validated: 1
EndChar
StartChar: zero
Encoding: 48 48 74
Width: 800
Flags: W
HStem: 344 134<391.417 479.909> 660 90<93.0037 172.991 320.446 476.762 687.017 768.451>
VStem: 82 126<329.886 485.938> 363 144<370.67 449.373> 647 108<332.44 473.933>
LayerCount: 2
Fore
SplineSet
441 478 m 0
 488 478 507 452 507 423 c 8
 507 385 472 344 425 344 c 8
 386 344 363 370 363 396 c 16
 363 433 398 478 441 478 c 0
745 748 m 2
 768 748 780 701 780 691 c 0
 780 681 748 666 736 665 c 0
 710 663 687 653 687 637 c 0
 687 625 755 523 755 455 c 0
 755 284 624 129 524 44 c 0
 512 35 498 29 480 29 c 8
 471 29 461 35 461 41 c 16
 461 47 467 53 478 61 c 0
 574 147 647 246 647 368 c 0
 647 452 580 660 376 660 c 2
 332 660 l 2
 308 660 309 649 321 648 c 0
 362 643 384 632 384 625 c 0
 384 619 357 611 344 602 c 0
 240 536 208 469 208 380 c 0
 208 370 209 362 209 353 c 8
 216 251 273 194 375 116 c 8
 380 112 386 108 386 104 c 8
 386 97 371 96 362 96 c 8
 348 96 336 98 327 104 c 0
 155 206 82 308 82 457 c 0
 82 524 100 555 164 626 c 0
 168 633 173 638 173 643 c 0
 173 652 161 658 125 660 c 0
 92 662 78 679 78 690 c 0
 78 702 91 750 136 750 c 2
 745 748 l 2
EndSplineSet
Validated: 1
EndChar
StartChar: one
Encoding: 49 49 75
Width: 300
Flags: W
HStem: -191 21G<107 122> 780 20G<133.5 138> 780 20G<133.5 138>
VStem: 97 49<-190.714 54.9163> 111 128<460.894 625.5>
LayerCount: 2
Fore
SplineSet
148 788 m 0xc8
 172 728 193 662 208 632 c 0
 223 602 239 582 239 556 c 0xc8
 239 550 180 318 167 209 c 0
 153 87 155 -15 146 -162 c 0
 144 -191 128 -191 116 -191 c 0
 98 -191 97 -92 97 -29 c 0
 97 9 97 48 97 86 c 0xd0
 97 138 98 187 100 236 c 0
 101 312 102 390 103 469 c 0
 104 526 111 569 111 617 c 0
 111 634 110 653 107 673 c 0
 106 681 84 670 86 678 c 0
 100 733 104 756 117 780 c 0xa8
 124 793 131 800 136 800 c 0
 140 800 144 796 148 788 c 0xc8
EndSplineSet
Validated: 1
EndChar
StartChar: two
Encoding: 332 50 76
Width: 512
VWidth: 1048
Flags: W
HStem: -204 21G<125.5 141.5 309.5 325.5> 689 20G<149.5 154 334.5 339> 689 20G<149.5 154 334.5 339>
VStem: 116 45<-203.934 37.1345> 129 118<389.525 542.736> 301 45<-203.934 37.1345> 313 118<389.525 542.736>
LayerCount: 2
Fore
SplineSet
348 698 m 0xc2
 370 643 389 582 403 554 c 0
 417 526 431 508 431 484 c 0xc2
 431 478 377 264 365 164 c 0
 352 52 346 -43 346 -178 c 0
 346 -203 331 -204 320 -204 c 0
 320 -204 319 -204 318 -204 c 0
 301 -204 301 -113 301 -55 c 0
 301 -20 301 16 301 51 c 0
 301 99 301 144 301 189 c 0xc4
 301 259 306 331 306 404 c 0
 306 457 313 496 313 540 c 0
 313 556 313 574 310 592 c 0
 309 599 288 590 290 597 c 0
 303 648 307 667 319 689 c 0xa2
 325 701 332 709 337 709 c 0
 341 709 344 705 348 698 c 0xc2
163 698 m 0
 185 643 205 582 219 554 c 0
 233 526 247 508 247 484 c 0xc8
 247 478 193 264 181 164 c 0
 168 52 161 -43 161 -178 c 0
 161 -203 147 -204 136 -204 c 0
 136 -204 135 -204 134 -204 c 0
 117 -204 116 -113 116 -55 c 0
 116 -20 116 16 116 51 c 0xd0
 116 99 119 144 119 189 c 0
 119 259 122 331 122 404 c 0
 122 457 129 496 129 540 c 0
 129 556 128 574 125 592 c 0
 124 599 104 590 106 597 c 0
 119 648 123 667 135 689 c 0xa8
 141 701 147 709 152 709 c 0
 156 709 159 705 163 698 c 0
EndSplineSet
Validated: 1
EndChar
StartChar: three
Encoding: 51 51 77
Width: 700
Flags: W
HStem: -191 21G<107 122 307 322 507 522> 780 20G<133.5 138 333.5 338 533.5 538> 780 20G<133.5 138 333.5 338 533.5 538>
VStem: 97 49<-190.714 54.9163> 111 128<460.894 625.5> 297 49<-190.714 54.9163> 311 128<460.894 625.5> 497 49<-190.714 54.9163> 511 128<460.894 625.5>
LayerCount: 2
Fore
SplineSet
548 788 m 4xc080
 572 728 593 662 608 632 c 4
 623 602 639 582 639 556 c 4xc080
 639 550 580 318 567 209 c 4
 553 87 555 -15 546 -162 c 4
 544 -191 528 -191 516 -191 c 4
 498 -191 497 -92 497 -29 c 4
 497 9 497 48 497 86 c 4xc1
 497 138 498 187 500 236 c 4
 501 312 502 390 503 469 c 4
 504 526 511 569 511 617 c 4
 511 634 510 653 507 673 c 4
 506 681 484 670 486 678 c 4
 500 733 504 756 517 780 c 4xa080
 524 793 531 800 536 800 c 4
 540 800 544 796 548 788 c 4xc080
348 788 m 4
 372 728 393 662 408 632 c 4
 423 602 439 582 439 556 c 4xc2
 439 550 380 318 367 209 c 4
 353 87 355 -15 346 -162 c 4
 344 -191 328 -191 316 -191 c 4
 298 -191 297 -92 297 -29 c 4
 297 9 297 48 297 86 c 4xc4
 297 138 298 187 300 236 c 4
 301 312 302 390 303 469 c 4
 304 526 311 569 311 617 c 4
 311 634 310 653 307 673 c 4
 306 681 284 670 286 678 c 4
 300 733 304 756 317 780 c 4xa2
 324 793 331 800 336 800 c 4
 340 800 344 796 348 788 c 4
148 788 m 4
 172 728 193 662 208 632 c 4
 223 602 239 582 239 556 c 4xc8
 239 550 180 318 167 209 c 4
 153 87 155 -15 146 -162 c 4
 144 -191 128 -191 116 -191 c 4
 98 -191 97 -92 97 -29 c 4
 97 9 97 48 97 86 c 4xd0
 97 138 98 187 100 236 c 4
 101 312 102 390 103 469 c 4
 104 526 111 569 111 617 c 4
 111 634 110 653 107 673 c 4
 106 681 84 670 86 678 c 4
 100 733 104 756 117 780 c 4xa8
 124 793 131 800 136 800 c 4
 140 800 144 796 148 788 c 4
EndSplineSet
Validated: 1
EndChar
StartChar: four
Encoding: 52 52 78
Width: 880
Flags: W
HStem: -191 21G<97 112 297 312 497 512 697 712> 780 20G<123.5 128 323.5 328 523.5 528 723.5 728> 780 20G<123.5 128 323.5 328 523.5 528 723.5 728>
VStem: 87 49<-190.714 54.9163> 101 128<460.894 625.5> 287 49<-190.714 54.9163> 301 128<460.894 625.5> 487 49<-190.714 54.9163> 501 128<460.894 625.5> 687 49<-190.714 54.9163> 701 128<460.894 625.5>
LayerCount: 2
Fore
SplineSet
738 788 m 0xc020
 762 728 783 662 798 632 c 0
 813 602 829 582 829 556 c 0xc020
 829 550 770 318 757 209 c 0
 743 87 745 -15 736 -162 c 0
 734 -191 718 -191 706 -191 c 0
 688 -191 687 -92 687 -29 c 0
 687 9 687 48 687 86 c 0xc040
 687 138 688 187 690 236 c 0
 691 312 692 390 693 469 c 0
 694 526 701 569 701 617 c 0
 701 634 700 653 697 673 c 0
 696 681 674 670 676 678 c 0
 690 733 694 756 707 780 c 0xa020
 714 793 721 800 726 800 c 0
 730 800 734 796 738 788 c 0xc020
538 788 m 0
 562 728 583 662 598 632 c 0
 613 602 629 582 629 556 c 0xc080
 629 550 570 318 557 209 c 0
 543 87 545 -15 536 -162 c 0
 534 -191 518 -191 506 -191 c 0
 488 -191 487 -92 487 -29 c 0
 487 9 487 48 487 86 c 0xc1
 487 138 488 187 490 236 c 0
 491 312 492 390 493 469 c 0
 494 526 501 569 501 617 c 0
 501 634 500 653 497 673 c 0
 496 681 474 670 476 678 c 0
 490 733 494 756 507 780 c 0xa080
 514 793 521 800 526 800 c 0
 530 800 534 796 538 788 c 0
338 788 m 0
 362 728 383 662 398 632 c 0
 413 602 429 582 429 556 c 0xc2
 429 550 370 318 357 209 c 0
 343 87 345 -15 336 -162 c 0
 334 -191 318 -191 306 -191 c 0
 288 -191 287 -92 287 -29 c 0
 287 9 287 48 287 86 c 0xc4
 287 138 288 187 290 236 c 0
 291 312 292 390 293 469 c 0
 294 526 301 569 301 617 c 0
 301 634 300 653 297 673 c 0
 296 681 274 670 276 678 c 0
 290 733 294 756 307 780 c 0xa2
 314 793 321 800 326 800 c 0
 330 800 334 796 338 788 c 0
138 788 m 0
 162 728 183 662 198 632 c 0
 213 602 229 582 229 556 c 0xc8
 229 550 170 318 157 209 c 0
 143 87 145 -15 136 -162 c 0
 134 -191 118 -191 106 -191 c 0
 88 -191 87 -92 87 -29 c 0
 87 9 87 48 87 86 c 0xd0
 87 138 88 187 90 236 c 0
 91 312 92 390 93 469 c 0
 94 526 101 569 101 617 c 0
 101 634 100 653 97 673 c 0
 96 681 74 670 76 678 c 0
 90 733 94 756 107 780 c 0xa8
 114 793 121 800 126 800 c 0
 130 800 134 796 138 788 c 0
EndSplineSet
Validated: 1
EndChar
StartChar: five
Encoding: 53 53 79
Width: 600
Flags: W
HStem: -191 21G<117 132> 352 132<308.061 462.815> 780 20G<143 148> 780 20G<143 148>
VStem: 107 49<-190.714 54.9163> 113 117<490.545 555.979> 121 128<556 614.822>
LayerCount: 2
Fore
SplineSet
534 493 m 0xe4
 540 493 543 490 543 486 c 0
 543 474 519 461 512 434 c 0
 507 413 494 396 473 380 c 0
 452 365 407 352 375 352 c 0
 357 352 334 359 313 360 c 0
 291 361 241 366 241 366 c 1
 241 366 204 366 198 350 c 0
 176 293 182 250 177 209 c 0
 163 87 165 -15 156 -162 c 0
 154 -191 138 -191 126 -191 c 0
 108 -191 107 -92 107 -29 c 2
 107 86 l 2xe8
 107 138 108 187 110 236 c 0
 111 312 112 390 113 469 c 0xe4
 114 525 121 569 121 616 c 0
 121 635 120 653 117 673 c 0
 116 681 94 670 96 678 c 0
 110 733 114 756 127 780 c 0xd2
 134 792 140 800 146 800 c 0
 150 800 154 796 158 788 c 0
 182 728 203 662 218 632 c 0
 233 602 249 582 249 556 c 0xe2
 249 556 230 527 230 509 c 0
 230 505 231 501 233 499 c 0
 245 485 308 485 308 485 c 1
 308 485 392 484 422 484 c 2
 460 484 l 2
 490 484 521 493 534 493 c 0xe4
EndSplineSet
Validated: 1
EndChar
StartChar: six
Encoding: 54 54 80
Width: 770
Flags: W
HStem: -191 21G<117 132 567 582> 352 132<308.061 462.815> 780 20G<143 148 593.5 598> 780 20G<143 148 593.5 598>
VStem: 107 49<-190.714 54.9163> 113 117<490.545 555.979> 121 128<556 614.822> 557 49<-190.714 54.9163> 571 128<460.894 625.5>
LayerCount: 2
Fore
SplineSet
608 788 m 4xe080
 632 728 653 662 668 632 c 4
 683 602 699 582 699 556 c 4xe080
 699 550 640 318 627 209 c 4
 613 87 615 -15 606 -162 c 4
 604 -191 588 -191 576 -191 c 4
 558 -191 557 -92 557 -29 c 4
 557 9 557 48 557 86 c 4xe1
 557 138 558 187 560 236 c 4
 561 312 562 390 563 469 c 4
 564 526 571 569 571 617 c 4
 571 634 570 653 567 673 c 4
 566 681 544 670 546 678 c 4
 560 733 564 756 577 780 c 4xd080
 584 793 591 800 596 800 c 4
 600 800 604 796 608 788 c 4xe080
534 493 m 4
 540 493 543 490 543 486 c 4
 543 474 519 461 512 434 c 4
 507 413 494 396 473 380 c 4
 452 365 407 352 375 352 c 4
 357 352 334 359 313 360 c 4
 291 361 241 366 241 366 c 5
 241 366 204 366 198 350 c 4
 176 293 182 250 177 209 c 4
 163 87 165 -15 156 -162 c 4
 154 -191 138 -191 126 -191 c 4
 108 -191 107 -92 107 -29 c 6
 107 86 l 6xe8
 107 138 108 187 110 236 c 4
 111 312 112 390 113 469 c 4xe4
 114 525 121 569 121 616 c 4
 121 635 120 653 117 673 c 4
 116 681 94 670 96 678 c 4
 110 733 114 756 127 780 c 4xd2
 134 792 140 800 146 800 c 4
 150 800 154 796 158 788 c 4
 182 728 203 662 218 632 c 4
 233 602 249 582 249 556 c 4xe2
 249 556 230 527 230 509 c 4xe4
 230 505 231 501 233 499 c 4
 245 485 308 485 308 485 c 5
 308 485 392 484 422 484 c 6
 460 484 l 6
 490 484 521 493 534 493 c 4
EndSplineSet
Validated: 1
EndChar
StartChar: eight
Encoding: 338 56 82
Width: 1167
VWidth: 1048
Flags: W
HStem: -204 21G<148.5 164.5 563.5 579.5 747.5 763.5 931.5 947.5> 296 122<253.36 471.055> 309 110<253.36 385.2> 689 20G<172 177 587.5 592 771.5 776 956.5 961> 689 20G<172 177 587.5 592 771.5 776 956.5 961>
VStem: 139 45<-203.934 37.1345> 145 108<423.519 483.981> 152 118<441.803 542.736> 554 45<-203.934 37.1345> 567 118<389.525 541.506> 738 46<-203.934 37.1345> 751 118<389.525 542.736> 923 45<-203.934 37.1345> 936 118<389.925 541.526>
LayerCount: 2
Fore
SplineSet
970 698 m 0x9004
 992 643 1011 582 1025 554 c 0
 1039 526 1054 508 1054 484 c 0x9004
 1054 478 999 264 987 164 c 0
 974 52 968 -43 968 -178 c 0
 968 -203 953 -204 942 -204 c 0
 942 -204 941 -204 940 -204 c 0
 923 -204 923 -113 923 -55 c 0
 923 -20 923 16 923 51 c 0
 923 99 923 144 923 189 c 0x9008
 923 259 928 331 928 404 c 0
 928 457 936 496 936 540 c 0
 936 556 935 574 932 592 c 0
 931 599 911 590 913 597 c 0
 926 648 929 667 941 689 c 0x8804
 947 701 954 709 959 709 c 0
 963 709 966 705 970 698 c 0x9004
785 698 m 0
 807 643 827 582 841 554 c 0
 855 526 869 508 869 484 c 0x9010
 869 478 815 264 803 164 c 0
 790 52 784 -43 784 -178 c 0
 784 -203 769 -204 758 -204 c 0
 758 -204 757 -204 756 -204 c 0
 739 -204 738 -113 738 -55 c 0
 738 -20 738 16 738 51 c 0x9020
 738 99 741 144 741 189 c 0
 741 259 744 331 744 404 c 0
 744 457 751 496 751 540 c 0
 751 556 751 574 748 592 c 0
 747 599 726 590 728 597 c 0
 741 648 745 667 757 689 c 0x8810
 763 701 769 709 774 709 c 0
 778 709 781 705 785 698 c 0
601 698 m 0
 623 643 642 582 656 554 c 0
 670 526 685 508 685 484 c 0x9040
 685 478 631 264 619 164 c 0
 606 52 599 -43 599 -178 c 0
 599 -203 585 -204 574 -204 c 0
 574 -204 573 -204 572 -204 c 0
 555 -204 554 -113 554 -55 c 0
 554 -20 554 16 554 51 c 0x9080
 554 99 557 144 557 189 c 0
 557 259 560 331 560 404 c 0
 560 457 567 496 567 540 c 0
 567 556 566 574 563 592 c 0
 562 599 542 590 544 597 c 0
 557 648 560 667 572 689 c 0x8840
 578 701 585 709 590 709 c 0
 594 709 597 705 601 698 c 0
533 426 m 0
 539 426 541 424 541 420 c 0
 541 409 519 397 513 372 c 0
 508 353 496 337 477 322 c 0
 458 308 415 296 386 296 c 0xc2
 369 296 348 304 329 304 c 0
 309 304 263 309 263 309 c 1
 263 309 261 309 259 309 c 0xa2
 250 309 228 308 223 296 c 0
 203 243 209 202 204 164 c 0
 191 52 184 -43 184 -178 c 0
 184 -203 170 -204 159 -204 c 0
 159 -204 158 -204 157 -204 c 0
 140 -204 139 -113 139 -55 c 2
 139 51 l 2xc4
 139 99 142 144 142 189 c 0
 142 259 145 331 145 404 c 0xc2
 145 456 152 496 152 539 c 0
 152 557 152 574 149 592 c 0
 148 599 127 590 129 597 c 0
 142 648 146 667 158 689 c 0xc9
 164 700 169 709 175 709 c 0
 179 709 182 705 186 698 c 0
 208 643 228 582 242 554 c 0
 256 526 270 508 270 484 c 0x91
 270 484 253 458 253 441 c 0
 253 437 253 434 255 432 c 0
 266 419 325 419 325 419 c 1xb2
 325 419 402 418 430 418 c 2
 465 418 l 2xc2
 493 418 521 426 533 426 c 0
EndSplineSet
Validated: 1
EndChar
StartChar: nine
Encoding: 57 57 83
Width: 1340
Flags: W
HStem: -191 21G<97 112 547 562 747 762 947 962 1147 1162> 352 132<288.061 442.815> 780 20G<123 128 573.5 578 773.5 778 973.5 978 1173.5 1178> 780 20G<123 128 573.5 578 773.5 778 973.5 978 1173.5 1178>
VStem: 87 49<-190.714 54.9163> 93 117<490.545 555.979> 101 128<556 614.822> 537 49<-190.714 54.9163> 551 128<460.894 625.5> 737 49<-190.714 54.9163> 751 128<460.894 625.5> 937 49<-190.714 54.9163> 951 128<460.894 625.5> 1137 49<-190.714 54.9163> 1151 128<460.894 625.5>
LayerCount: 2
Fore
SplineSet
1188 788 m 4xe002
 1212 728 1233 662 1248 632 c 4
 1263 602 1279 582 1279 556 c 4xe002
 1279 550 1220 318 1207 209 c 4
 1193 87 1195 -15 1186 -162 c 4
 1184 -191 1168 -191 1156 -191 c 4
 1138 -191 1137 -92 1137 -29 c 4
 1137 9 1137 48 1137 86 c 4xe004
 1137 138 1138 187 1140 236 c 4
 1141 312 1142 390 1143 469 c 4
 1144 526 1151 569 1151 617 c 4
 1151 634 1150 653 1147 673 c 4
 1146 681 1124 670 1126 678 c 4
 1140 733 1144 756 1157 780 c 4xd002
 1164 793 1171 800 1176 800 c 4
 1180 800 1184 796 1188 788 c 4xe002
988 788 m 4
 1012 728 1033 662 1048 632 c 4
 1063 602 1079 582 1079 556 c 4xe008
 1079 550 1020 318 1007 209 c 4
 993 87 995 -15 986 -162 c 4
 984 -191 968 -191 956 -191 c 4
 938 -191 937 -92 937 -29 c 4
 937 9 937 48 937 86 c 4xe010
 937 138 938 187 940 236 c 4
 941 312 942 390 943 469 c 4
 944 526 951 569 951 617 c 4
 951 634 950 653 947 673 c 4
 946 681 924 670 926 678 c 4
 940 733 944 756 957 780 c 4xd008
 964 793 971 800 976 800 c 4
 980 800 984 796 988 788 c 4
788 788 m 4
 812 728 833 662 848 632 c 4
 863 602 879 582 879 556 c 4xe020
 879 550 820 318 807 209 c 4
 793 87 795 -15 786 -162 c 4
 784 -191 768 -191 756 -191 c 4
 738 -191 737 -92 737 -29 c 4
 737 9 737 48 737 86 c 4xe040
 737 138 738 187 740 236 c 4
 741 312 742 390 743 469 c 4
 744 526 751 569 751 617 c 4
 751 634 750 653 747 673 c 4
 746 681 724 670 726 678 c 4
 740 733 744 756 757 780 c 4xd020
 764 793 771 800 776 800 c 4
 780 800 784 796 788 788 c 4
588 788 m 4
 612 728 633 662 648 632 c 4
 663 602 679 582 679 556 c 4xe080
 679 550 620 318 607 209 c 4
 593 87 595 -15 586 -162 c 4
 584 -191 568 -191 556 -191 c 4
 538 -191 537 -92 537 -29 c 4
 537 9 537 48 537 86 c 4xe1
 537 138 538 187 540 236 c 4
 541 312 542 390 543 469 c 4
 544 526 551 569 551 617 c 4
 551 634 550 653 547 673 c 4
 546 681 524 670 526 678 c 4
 540 733 544 756 557 780 c 4xd080
 564 793 571 800 576 800 c 4
 580 800 584 796 588 788 c 4
514 493 m 4
 520 493 523 490 523 486 c 4
 523 474 499 461 492 434 c 4
 487 413 474 396 453 380 c 4
 432 365 387 352 355 352 c 4
 337 352 314 359 293 360 c 4
 271 361 221 366 221 366 c 5
 221 366 184 366 178 350 c 4
 156 293 162 250 157 209 c 4
 143 87 145 -15 136 -162 c 4
 134 -191 118 -191 106 -191 c 4
 88 -191 87 -92 87 -29 c 6
 87 86 l 6xe8
 87 138 88 187 90 236 c 4
 91 312 92 390 93 469 c 4xe4
 94 525 101 569 101 616 c 4
 101 635 100 653 97 673 c 4
 96 681 74 670 76 678 c 4
 90 733 94 756 107 780 c 4xd2
 114 792 120 800 126 800 c 4
 130 800 134 796 138 788 c 4
 162 728 183 662 198 632 c 4
 213 602 229 582 229 556 c 4xe2
 229 556 210 527 210 509 c 4xe4
 210 505 211 501 213 499 c 4
 225 485 288 485 288 485 c 5
 288 485 372 484 402 484 c 6
 440 484 l 6
 470 484 501 493 514 493 c 4
EndSplineSet
Validated: 1
EndChar
StartChar: semicolon
Encoding: 59 59 85
Width: 204
Flags: W
HStem: 414 170<49.0398 161.961>
VStem: 21 167<33.5535 140.344 441.512 556.397>
LayerCount: 2
Fore
SplineSet
106 414 m 0
 82 414 62 423 45 440 c 0
 29 456 21 476 21 498 c 0
 21 521 29 541 45 558 c 0
 62 575 82 584 106 584 c 0
 129 584 149 575 166 558 c 0
 182 541 190 521 190 498 c 0
 190 476 182 456 166 440 c 0
 149 423 129 414 106 414 c 0
120 -20 m 1
 73 9 l 2
 54 20 41 33 33 47 c 0
 25 61 21 75 21 88 c 0
 21 111 28 130 43 146 c 0
 58 162 78 170 102 170 c 0
 114 170 126 167 138 163 c 0
 150 159 161 152 172 141 c 1
 179 127 183 113 185 101 c 0
 187 89 188 75 188 59 c 0
 188 13 177 -29 156 -66 c 0
 136 -103 109 -135 77 -161 c 0
 45 -187 12 -207 -21 -220 c 1
 -35 -190 l 1
 6 -168 40 -144 65 -118 c 0
 90 -92 109 -59 120 -20 c 1
EndSplineSet
Validated: 1
EndChar
StartChar: question
Encoding: 345 63 89
Width: 409
VWidth: 1048
Flags: W
HStem: -92 154<116.539 200.682> 497 127<93.5133 203.239>
VStem: 86 145<-59.875 30.7195> 123 60<156.328 220.588> 333 50<381.014 477.805>
LayerCount: 2
Fore
SplineSet
158 62 m 0xe8
 196 62 231 47 231 9 c 0
 231 -40 197 -92 158 -92 c 0
 125 -92 86 -69 86 -36 c 0
 86 12 122 62 158 62 c 0xe8
318 478 m 1
 152 497 l 2
 107 504 76 519 76 561 c 0
 76 600 98 616 131 624 c 1
 223 604 314 557 358 487 c 0
 374 461 383 432 383 400 c 0
 383 320 341 279 281 255 c 2
 239 239 l 1
 217 228 203 220 197 214 c 0
 190 207 183 196 183 182 c 2
 183 135 l 1
 153 135 l 1
 139 174 l 1
 132 202 123 221 123 249 c 0xd8
 123 267 129 283 141 295 c 0
 153 307 174 319 204 330 c 2
 261 351 l 2
 288 362 307 373 317 383 c 0
 328 394 333 408 333 428 c 0
 333 445 327 462 318 478 c 1
EndSplineSet
Validated: 1
EndChar
StartChar: A
Encoding: 256 65 0
Width: 548
VWidth: 0
Flags: W
HStem: -92 21G<298 304.5> 628 58<433.52 511.738> 635 41<31.0727 144.617 210.618 341.993>
VStem: 55 113<250.868 472.465> 292 74<432.665 556.52>
LayerCount: 2
Fore
SplineSet
317 635 m 2xb8
 245 635 l 2
 204 635 168 559 168 396 c 0
 168 285 186 186 234 71 c 0
 237 63 260 22 275 22 c 0
 283 22 307 67 334 105 c 0
 346 123 357 143 370 143 c 0
 377 143 387 127 384 121 c 0
 358 71 319 -23 319 -77 c 0
 319 -88 307 -92 302 -92 c 0
 294 -92 245 -34 230 -8 c 0
 173 85 55 222 55 362 c 0
 55 455 94 513 142 597 c 0
 144 601 146 605 146 609 c 0
 146 629 106 635 66 635 c 0
 42 635 31 643 31 657 c 0
 31 670 47 676 80 676 c 2
 309 676 l 2xb8
 323 676 382 671 399 671 c 0
 406 671 487 686 494 686 c 0
 511 686 518 681 518 666 c 0
 518 650 501 638 474 628 c 0xd8
 406 602 366 546 366 469 c 0
 366 452 370 421 370 403 c 0
 370 394 369 388 366 388 c 0
 335 388 292 452 292 502 c 0
 292 562 342 611 342 621 c 0
 342 629 332 635 317 635 c 2xb8
EndSplineSet
Validated: 1
EndChar
StartChar: B
Encoding: 257 66 1
Width: 580
Flags: HW
HStem: -92 21G<62.5 81.5> 635 41<56.0727 147.88 207.279 439.298> 671 20G<510 529.5> 671 20G<510 529.5>
VStem: 56 33<211.578 410.942> 163 43<528.716 620.313> 259 112<191.13 294.453> 474 69<491.604 675.632>
LayerCount: 2
Fore
SplineSet
91 635 m 0xcf
 67 635 56 643 56 657 c 0
 56 670 72 676 105 676 c 10
 423 676 l 26xcf
 462 676 499 691 521 691 c 0xaf
 538 691 543 681 543 664 c 0
 543 556 539 480 471 432 c 0
 455 421 438 415 431 415 c 0
 421 415 415 422 415 431 c 16
 415 441 474 465 474 512 c 0
 474 579 451 635 382 635 c 2
 244 635 l 18
 218 635 206 627 206 603 c 0
 206 554 211 545 218 537 c 0
 295 448 371 380 371 280 c 0
 371 158 245 43 111 -47 c 0
 91 -60 94 -92 69 -92 c 8
 56 -92 56 -73 56 -60 c 26
 56 376 l 18
 56 391 62 411 72 411 c 0
 82 411 87 391 89 374 c 0
 103 242 114 44 155 44 c 0
 211 44 259 155 259 229 c 0
 259 280 220 321 191 343 c 0
 174 356 163 392 163 426 c 26
 163 574 l 26
 163 611 138 635 91 635 c 0xcf
EndSplineSet
Validated: 1
EndChar
StartChar: C
Encoding: 67 67 2
Width: 760
Flags: W
HStem: 748 53<136 611.904>
VStem: 58 78<694.755 747.644> 58 47<-196.774 268.148> 612 78<686.176 747.953> 643 47<-196.144 249.469>
LayerCount: 2
Fore
SplineSet
58 -137 m 10xa0
 58 776 l 2
 58 793 80 801 123 801 c 2
 638 801 l 2
 673 801 690 793 690 776 c 10
 690 -137 l 18
 690 -148 687 -197 663 -197 c 0
 644 -197 643 -178 643 -158 c 0
 643 -152 643 -146 643 -140 c 2
 643 34 l 10xa8
 643 259 599 475 500 594 c 0
 492 604 479 613 479 627 c 16
 479 636 491 644 503 646 c 16
 550 658 612 688 612 722 c 0
 612 741 607 748 587 748 c 2
 169 748 l 2
 138 748 136 742 136 730 c 0
 136 729 136 728 136 726 c 0xd0
 136 702 213 652 248 643 c 0
 256 640 266 636 266 627 c 16
 266 611 248 598 240 589 c 0
 144 475 105 268 105 52 c 18
 105 -139 l 10
 105 -162 104 -197 84 -197 c 0
 63 -197 58 -179 58 -137 c 10xa0
EndSplineSet
Validated: 1
EndChar
StartChar: F
Encoding: 261 70 5
Width: 603
Flags: W
HStem: -92 21G<83.5 97> 338 87<309 481.01> 635 56<485.172 556.596> 635 41<176.579 357.796> 671 20G<72.5 89>
VStem: 55 39<409.187 530.518> 76 37<-91.2852 59.5151>
LayerCount: 2
Fore
SplineSet
55 456 m 2xd4
 55 652 l 2
 55 663 61 691 84 691 c 0xcc
 94 691 149 676 180 676 c 2
 379 676 l 2xd4
 450 676 498 691 523 691 c 0xe4
 540 691 563 687 563 671 c 0xcc
 563 655 536 641 523 635 c 0
 449 600 376 523 309 425 c 1
 536 425 l 2
 547 425 557 418 557 408 c 0
 557 326 564 271 574 215 c 0
 575 212 575 208 575 204 c 0
 575 190 570 177 559 177 c 0
 547 177 538 191 536 204 c 0
 523 282 477 338 431 338 c 2
 256 338 l 1
 189 216 113 74 113 -62 c 0
 113 -76 104 -92 90 -92 c 0
 77 -92 76 -75 76 -62 c 0xe2
 76 229 232 506 364 618 c 0
 372 625 351 635 337 635 c 2
 249 635 l 2
 152 635 111 555 94 458 c 0
 90 438 86 409 73 409 c 0
 60 409 55 438 55 456 c 2xd4
EndSplineSet
Validated: 1
EndChar
StartChar: G
Encoding: 71 71 6
Width: 730
Flags: W
HStem: -199 21G<327.5 341> 746 53<226.829 414.935 550.018 655.685> 798 20G<84.5 105.5> 798 20G<84.5 105.5>
VStem: 62 50<453.684 599.913> 515 147<282.64 543.305>
LayerCount: 2
Fore
SplineSet
371 746 m 2xcc
 313 746 l 2xcc
 186 746 134 642 112 516 c 0
 107 490 101 452 84 452 c 0
 67 452 62 490 62 513 c 2
 62 768 l 2
 62 782 70 818 99 818 c 0xac
 112 818 184 799 224 799 c 2
 605 799 l 2
 627 799 657 795 657 774 c 0
 657 753 618 750 605 748 c 0
 575 744 550 742 550 727 c 0
 550 724 552 717 557 711 c 0
 596 656 662 553 662 439 c 8
 662 174 471 -50 375 -176 c 0
 363 -190 350 -199 332 -199 c 8
 323 -199 315 -190 315 -181 c 16
 315 -171 319 -162 328 -150 c 0
 420 -23 515 116 515 309 c 8
 515 474 495 603 418 720 c 0
 413 727 391 746 371 746 c 2xcc
EndSplineSet
Validated: 1
EndChar
StartChar: H
Encoding: 72 72 7
Width: 780
Flags: W
HStem: -198 42<77.3858 170.965> 325 69<505.228 603.725> 684 50<88.7524 209.471 346.271 559.839>
VStem: 565 110<623.5 796.5> 621 95<193.826 413.723>
LayerCount: 2
Fore
SplineSet
503 295 m 0xe8
 483 93 328 -69 243 -181 c 0
 232 -194 220 -198 204 -198 c 2
 116 -198 l 2
 101 -198 76 -194 76 -181 c 0
 76 -171 98 -162 135 -156 c 0
 223 -141 384 143 384 325 c 0
 384 483 278 677 132 684 c 0
 112 685 88 694 88 711 c 0
 88 727 109 734 150 734 c 10
 471 734 l 18
 595 734 612 829 651 829 c 0
 672 829 675 806 675 787 c 0
 675 686 656 642 605 568 c 0
 592 549 568 526 560 526 c 0
 547 526 546 544 546 557 c 16
 546 569 565 606 565 641 c 0xf0
 565 673 563 684 514 684 c 10
 370 684 l 18
 350 684 346 673 346 654 c 0
 346 585 434 499 476 431 c 0
 493 400 515 394 528 394 c 10
 571 394 l 18
 592 394 605 407 605 424 c 0
 605 427 605 428 605 431 c 0
 601 450 598 469 598 474 c 0
 598 490 611 498 621 508 c 0
 646 531 648 554 660 554 c 0
 670 554 716 438 716 360 c 16
 716 228 670 103 636 31 c 0
 628 15 619 -2 604 -2 c 0
 593 -2 590 9 590 20 c 0
 590 39 621 140 621 290 c 0
 621 315 603 325 571 325 c 10
 539 325 l 18
 517 325 504 311 503 295 c 0xe8
EndSplineSet
Validated: 1
EndChar
StartChar: K
Encoding: 75 75 10
Width: 750
Flags: W
HStem: -199 21G<366.5 382.5> 746 53<233.207 447.935 569.018 674.685> 798 20G<210.5 232.5> 798 20G<210.5 232.5>
VStem: 65 98<224.215 543.355> 358 48<14.6393 197.193> 601 79<224.219 464.163>
LayerCount: 2
Fore
SplineSet
163 452 m 0xce
 163 282 173 155 251 12 c 0
 269 -21 294 -51 304 -51 c 0
 315 -51 346 32 358 107 c 0
 361 136 369 200 386 200 c 0
 402 200 406 170 406 161 c 0
 406 70 406 -75 406 -164 c 0
 406 -184 393 -199 372 -199 c 0
 361 -199 302 -142 273 -116 c 0
 148 3 65 217 65 384 c 0
 65 505 105 683 179 789 c 0
 182 791 203 818 218 818 c 0xae
 247 818 278 799 326 799 c 10
 624 799 l 2
 646 799 676 795 676 774 c 0
 676 753 637 750 624 748 c 0
 594 744 569 742 569 727 c 0
 569 724 571 717 576 711 c 0
 615 656 680 523 680 393 c 0
 680 239 640 136 543 20 c 0
 532 6 519 -4 501 -4 c 8
 491 -4 484 6 484 15 c 16
 484 25 491 33 501 45 c 0
 558 118 601 198 601 309 c 0
 601 478 528 603 451 720 c 0
 446 727 424 746 404 746 c 2
 265 746 l 2
 235 746 233 741 233 730 c 0
 233 728 233 726 233 724 c 0
 233 700 276 685 311 675 c 0
 319 673 329 665 329 655 c 16
 329 639 316 633 304 630 c 0
 216 608 163 543 163 452 c 0xce
EndSplineSet
Validated: 1
EndChar
StartChar: L
Encoding: 267 76 11
Width: 525
VWidth: 0
Flags: HW
HStem: -82 31<397.006 496.971> 635 41<18.0659 75.3398 179.997 406.444> 671 20G<472 491.5> 671 20G<472 491.5>
VStem: 252 49<48.707 381.515> 424 81<506.711 674.359>
LayerCount: 2
Fore
SplineSet
301 302 m 2xcc
 301 181 l 2
 301 47 351 -51 469 -51 c 0
 479 -51 497 -55 497 -67 c 0
 497 -78 487 -82 473 -82 c 10
 270 -82 l 18
 259 -82 252 -73 252 -48 c 2
 252 206 l 2
 252 375 200 553 48 631 c 0
 28 642 18 643 18 657 c 0
 18 670 34 676 67 676 c 10
 385 676 l 26xcc
 424 676 461 691 483 691 c 0xac
 500 691 505 681 505 664 c 0
 505 556 492 480 424 432 c 0
 408 421 392 415 385 415 c 0
 375 415 368 422 368 431 c 16
 368 441 424 489 424 536 c 0
 424 603 413 635 344 635 c 2
 196 635 l 18
 170 635 165 626 176 617 c 0
 262 547 301 454 301 302 c 2xcc
EndSplineSet
Validated: 1
EndChar
StartChar: N
Encoding: 269 78 13
Width: 435
Flags: HW
HStem: -92 21G<46 56.5> 656 20G<54.5 247>
VStem: 22 170<573 662.5> 137 97<198.415 407.604> 356 61<424.718 586.687>
LayerCount: 2
Fore
SplineSet
137 279 m 0xd8
 137 408 112 543 57 616 c 0
 47 629 22 642 22 656 c 0
 22 669 38 676 71 676 c 10
 238 676 l 26
 256 676 281 673 281 659 c 0
 281 648 252 640 229 635 c 0
 210 631 192 616 192 597 c 0xe8
 192 549 239 466 292 403 c 0
 306 386 314 388 322 403 c 0
 324 407 356 456 356 509 c 0
 356 588 346 621 346 632 c 0
 346 643 345 653 356 653 c 0
 368 653 417 557 417 489 c 0
 417 390 356 250 331 250 c 0
 321 250 260 311 231 385 c 0
 227 396 217 388 224 366 c 0
 230 347 234 329 234 301 c 0
 234 214 156 59 78 -73 c 0
 71 -84 63 -92 50 -92 c 24
 42 -92 38 -79 42 -72 c 0
 95 28 137 131 137 279 c 0xd8
EndSplineSet
Validated: 1
EndChar
StartChar: P
Encoding: 80 80 15
Width: 780
Flags: W
HStem: -199 21G<561 574> 746 53<63.842 129.545 183.013 546.996> 798 20G<679 701> 798 20G<679 701>
VStem: 414 101<14.4968 371.566> 547 167<726 794.5>
LayerCount: 2
Fore
SplineSet
62 778 m 0xac
 63 795 84 799 101 799 c 2
 591 799 l 2xcc
 612 799 668 818 690 818 c 0
 691 818 694 818 694 818 c 0
 708 818 714 803 714 786 c 0
 714 772 713 766 705 753 c 0
 593 558 515 405 515 168 c 0
 515 35 527 -47 575 -172 c 0
 579 -183 579 -199 569 -199 c 0
 553 -199 547 -193 534 -177 c 0
 474 -103 414 23 414 166 c 0
 414 259 419 339 434 412 c 1
 366 404 340 395 301 365 c 0
 283 350 276 318 248 318 c 0
 236 318 233 336 233 344 c 0
 233 505 190 713 97 747 c 0
 80 753 62 760 62 777 c 0
 62 778 l 0xac
443 454 m 1
 462 539 496 618 544 714 c 0
 546 719 547 724 547 728 c 0
 547 738 541 746 532 746 c 2
 220 746 l 2
 201 746 183 744 183 738 c 0
 183 737 183 736 185 734 c 0
 259 668 319 579 337 465 c 0
 340 452 346 440 356 443 c 0
 374 447 410 454 443 454 c 1
EndSplineSet
Validated: 1
EndChar
StartChar: R
Encoding: 82 82 17
Width: 790
Flags: W
HStem: -198 21G<389 400.5> 708 100<284.605 471.541>
VStem: 184 148<212.113 467.569>
LayerCount: 2
Fore
SplineSet
80 625 m 0
 80 677 228 808 418 808 c 0
 559 808 729 703 729 622 c 0
 729 605 720 588 685 582 c 8
 561 560 490 540 375 487 c 24
 345 474 332 449 332 417 c 0
 332 15 409 -146 409 -170 c 8
 409 -182 406 -198 395 -198 c 8
 383 -198 378 -189 371 -179 c 16
 265 6 184 234 184 336 c 0
 184 401 188 483 256 517 c 16
 362 569 403 583 503 609 c 16
 517 613 520 622 520 634 c 0
 520 669 464 708 343 708 c 0
 244 708 193 677 119 616 c 0
 111 609 105 603 94 603 c 8
 85 603 80 612 80 625 c 0
EndSplineSet
Validated: 1
EndChar
StartChar: S
Encoding: 83 83 18
Width: 760
Flags: W
HStem: -199 803<95 311> 746 53<393.541 501.187> 798 20G<190.5 220.5> 798 20G<190.5 220.5>
VStem: 440 75<-16.1794 202.835> 518 35<345.764 394.241> 632 42<580.215 641.058>
LayerCount: 2
Fore
SplineSet
174 790 m 0xce
 174 807 181 818 200 818 c 0xae
 241 818 321 799 382 799 c 10
 545 799 l 26
 573 799 603 794 612 781 c 0
 646 737 674 673 674 622 c 0
 674 596 668 579 661 579 c 8
 648 579 635 587 632 599 c 0
 622 659 510 746 402 746 c 0
 388 746 384 734 394 727 c 0
 468 685 553 506 553 397 c 0
 553 392 553 386 553 379 c 0
 553 362 550 345 540 345 c 0
 527 345 523 358 518 370 c 0
 495 422 401 474 342 491 c 0
 337 492 334 480 338 477 c 0
 453 362 515 256 515 76 c 0
 515 -36 416 -141 349 -185 c 0
 334 -194 325 -199 311 -199 c 8
 300 -199 293 -188 294 -177 c 24
 295 -164 306 -154 315 -149 c 0
 376 -114 440 -33 440 55 c 0
 440 279 310 425 113 547 c 0
 98 557 79 564 79 583 c 0
 79 596 82 604 95 604 c 0
 254 604 317 577 402 542 c 0
 414 536 419 549 412 562 c 0
 382 623 308 690 199 753 c 0
 186 761 174 779 174 790 c 0xce
EndSplineSet
Validated: 1
EndChar
StartChar: U
Encoding: 85 85 20
Width: 770
VWidth: 0
Flags: W
HStem: -199 21G<75 95> -173 99<257.833 434.986> -173 54<568.374 682.161> 194 138<293.606 414.922> 762 51<612.703 698.529> 772 41<291.017 415.076>
VStem: 66 48<120.666 304.509> 254 200<228.685 296.562> 595 89<198.859 535.083>
LayerCount: 2
Fore
SplineSet
454 268 m 0x9380
 454 226 387 194 331 194 c 8
 293 194 254 215 254 252 c 16
 254 298 315 332 371 332 c 16
 415 332 454 312 454 268 c 0x9380
684 369 m 0
 684 247 631 35 570 -71 c 0
 567 -76 565 -82 565 -86 c 0
 565 -105 593 -117 638 -119 c 0
 669 -122 683 -130 683 -148 c 0
 683 -165 662 -173 619 -173 c 2xbb80
 317 -173 l 2
 172 -173 154 -113 132 -113 c 0
 118 -113 106 -199 84 -199 c 0
 66 -199 66 -170 66 -151 c 2
 66 170 l 2
 66 233 81 317 101 317 c 8
 112 317 114 302 114 288 c 0
 114 117 175 -74 345 -74 c 8
 544 -74 595 180 595 369 c 0
 595 551 515 772 328 772 c 0
 315 772 291 776 291 792 c 0
 291 806 305 813 323 813 c 10xd780
 648 813 l 18
 671 813 701 806 701 791 c 0
 701 775 660 763 648 762 c 0x9b80
 625 759 610 749 610 724 c 0
 610 707 684 638 684 369 c 0
EndSplineSet
Validated: 1
EndChar
StartChar: V
Encoding: 86 86 21
Width: 750
Flags: W
HStem: 730 71<332.002 403.678> 748 53<120.58 213.758 533.286 602.948>
VStem: 80 113<121.748 442.264> 587 84<106.192 396.03>
LayerCount: 2
Fore
SplineSet
355 -167 m 8xb0
 361 -174 366 -180 366 -186 c 8
 366 -196 351 -197 342 -197 c 8
 329 -197 319 -195 310 -186 c 0
 146 -32 80 86 80 308 c 0
 80 409 143 591 205 697 c 0
 210 708 214 715 214 723 c 0
 214 736 201 745 166 748 c 0
 134 750 120 758 120 776 c 0
 120 793 142 801 186 801 c 10
 553 801 l 18x70
 575 801 605 795 605 779 c 0
 605 764 589 752 578 750 c 0
 558 748 533 738 533 723 c 0
 533 719 535 717 537 713 c 0
 623 578 671 476 671 303 c 0
 671 47 595 -39 489 -149 c 0
 476 -162 465 -174 446 -174 c 8
 437 -174 429 -163 429 -154 c 16
 429 -144 433 -135 444 -124 c 0
 539 -31 587 41 587 224 c 0
 587 350 541 578 397 714 c 0
 387 723 374 730 362 730 c 0
 350 730 337 723 332 713 c 8
 257 562 193 472 193 306 c 8
 193 111 257 -50 355 -167 c 8xb0
EndSplineSet
Validated: 1
EndChar
StartChar: W
Encoding: 87 87 22
Width: 780
Flags: W
HStem: -204 42<177.383 274.148> 671 50<73.6884 173.984 464.268 656.134> 795 20G<727 756.5>
VStem: 57 122<215.685 356.751> 473 130<260.907 410.37> 661 108<611 782.5>
LayerCount: 2
Fore
SplineSet
603 377 m 0
 603 216 426 -76 342 -187 c 0
 331 -200 318 -204 302 -204 c 2
 215 -204 l 2
 201 -204 176 -200 176 -187 c 0
 176 -177 198 -168 235 -162 c 0
 264 -157 298 -123 334 -75 c 1
 200 19 57 188 57 306 c 0
 57 321 80 357 87 371 c 0
 124 433 175 550 175 623 c 0
 175 626 175 629 175 632 c 0
 175 659 173 667 128 671 c 0
 98 673 73 681 73 698 c 0
 73 714 92 721 135 721 c 2
 568 721 l 2
 691 721 708 815 746 815 c 0
 767 815 769 792 769 773 c 0
 769 673 751 629 701 556 c 0
 688 537 664 515 656 515 c 0
 644 515 642 532 642 545 c 0
 642 557 661 594 661 628 c 0
 661 660 659 671 611 671 c 2
 487 671 l 2
 468 671 464 660 464 642 c 0
 464 573 530 467 573 420 c 0
 596 393 603 393 603 377 c 0
358 -38 m 1
 419 63 473 207 473 315 c 0
 473 472 415 568 330 642 c 0
 322 649 307 646 301 638 c 0
 232 545 179 457 179 301 c 0
 179 156 274 28 358 -38 c 1
EndSplineSet
Validated: 1
EndChar
StartChar: X
Encoding: 279 88 23
Width: 634
Flags: W
HStem: -82 44<31.3816 172.94 257.594 386.805> 686 105G<225 235.5 374.5 383>
VStem: 39 86<176.97 448.11> 516 91<187.978 502.63>
LayerCount: 2
Fore
SplineSet
373 783 m 0
 369 788 365 794 365 798 c 8
 365 805 371 811 378 811 c 8
 388 811 396 809 403 802 c 0
 529 684 607 519 607 348 c 0
 607 119 540 14 505 -41 c 0
 487 -71 469 -82 439 -82 c 10
 68 -82 l 18
 51 -82 28 -78 28 -66 c 0
 28 -54 64 -44 73 -43 c 0
 90 -41 173 -30 173 -17 c 0
 173 -16 173 -15 172 -14 c 0
 100 74 39 168 39 301 c 0
 39 498 138 600 200 668 c 0
 210 678 218 686 232 686 c 8
 239 686 246 679 246 672 c 16
 246 664 241 656 234 648 c 0
 173 578 125 502 125 361 c 0
 125 220 157 72 256 -15 c 0
 259 -18 292 -38 305 -38 c 2
 361 -38 l 2
 368 -38 383 -34 387 -29 c 0
 459 70 516 201 516 329 c 8
 516 515 465 662 373 783 c 0
EndSplineSet
Validated: 1
EndChar
StartChar: Z
Encoding: 90 90 25
Width: 525
Flags: W
HStem: 760 55<127.012 278.333>
VStem: 285 40<-200.447 -42.061>
LayerCount: 2
Fore
SplineSet
101 773 m 0
 101 790 177 815 255 815 c 0
 357 815 440 735 440 702 c 0
 440 696 435 694 429 694 c 0
 421 694 398 703 369 703 c 0
 305 703 244 670 244 646 c 0
 244 638 251 633 258 633 c 26
 419 633 l 26
 430 633 446 633 446 622 c 0
 446 611 429 600 418 592 c 0
 343 534 322 230 322 -40 c 0
 322 -84 325 -126 325 -167 c 0
 325 -181 320 -201 309 -201 c 0
 295 -201 286 -185 285 -169 c 0
 267 145 206 491 138 590 c 0
 128 604 117 624 117 629 c 0
 117 654 189 700 271 715 c 0
 281 717 289 720 289 727 c 0
 289 736 254 760 130 760 c 0
 119 760 101 762 101 773 c 0
EndSplineSet
Validated: 1
EndChar
StartChar: bracketleft
Encoding: 282 91 26
Width: 289
VWidth: 1048
Flags: HW
HStem: 679 88<105 277.39>
VStem: 9 271<679 765.909> 9 96<210.586 679>
LayerCount: 2
Fore
SplineSet
58 249 m 0xa0
 47 249 9 256 9 267 c 2xa0
 9 783 l 2
 9 797 23 809 37 809 c 2
 265 809 l 2
 277 809 280 776 280 764 c 0xc0
 280 752 275 722 263 722 c 2
 105 722 l 1
 105 268 l 2
 105 257 69 249 58 249 c 0xa0
EndSplineSet
Validated: 1
EndChar
StartChar: a
Encoding: 97 97 32
Width: 770
VWidth: 0
Flags: W
HStem: -233.985 30.03G<306.578 316.132> -233.985 30.03G<306.578 316.132> 748.815 79.17<492.218 598.688> 758.37 55.965<-57.8775 96.3675 186.457 366.637>
VStem: -25.1175 154.245<234.21 537.24> 298.387 101.01<481.275 650.535>
LayerCount: 2
Fore
SplineSet
440 746 m 2x1c
 346 746 l 2
 293 746 246 648 246 436 c 0
 246 291 269 163 332 13 c 0
 336 3 366 -50 385 -50 c 0
 396 -50 427 8 462 57 c 0
 477 81 492 107 509 107 c 0
 517 107 528 91 528 82 c 0
 528 80 528 79 527 78 c 0
 493 13 451 -109 442 -179 c 0
 441 -194 427 -199 420 -199 c 0
 410 -199 346 -123 327 -90 c 0
 253 31 99 210 99 392 c 0
 99 512 150 588 212 697 c 0
 215 702 217 707 217 711 c 0
 217 736 165 742 113 746 c 0
 82 749 68 757 68 775 c 0
 68 792 89 800 132 800 c 2
 429 800 l 2x9c
 448 800 524 793 546 793 c 0
 555 793 661 813 670 813 c 0
 692 813 701 806 701 787 c 0
 701 766 679 750 644 737 c 0x2c
 555 704 503 631 503 531 c 0
 503 508 509 468 509 445 c 0
 509 433 507 425 503 425 c 0
 463 425 407 508 407 574 c 0
 407 652 472 715 472 728 c 0
 472 739 459 746 440 746 c 2x1c
EndSplineSet
Validated: 1
EndChar
StartChar: c
Encoding: 99 99 34
Width: 760
Flags: W
HStem: -92 22G<73 89 517 536> -92 22G<73 89 517 536> 635 41<121 487>
VStem: 61 59<591 635> 61 36<-92 302> 487 59<585 635> 511 36<-92 289>
LayerCount: 2
Fore
SplineSet
58 -137 m 10xa8
 58 776 l 2
 58 793 80 801 123 801 c 2
 638 801 l 2
 673 801 690 793 690 776 c 10
 690 -137 l 18
 690 -148 687 -197 663 -197 c 0
 644 -197 643 -178 643 -158 c 0
 643 -152 643 -146 643 -140 c 2
 643 34 l 10xaa
 643 259 599 475 500 594 c 0
 492 604 479 613 479 627 c 16
 479 636 491 644 503 646 c 16
 550 658 612 688 612 722 c 0
 612 741 607 748 587 748 c 2
 169 748 l 2
 138 748 136 742 136 730 c 0
 136 729 136 728 136 726 c 0xb4
 136 702 213 652 248 643 c 0
 256 640 266 636 266 627 c 16
 266 611 248 598 240 589 c 0
 144 475 105 268 105 52 c 18
 105 -139 l 10
 105 -162 104 -197 84 -197 c 0
 63 -197 58 -179 58 -137 c 10xa8
EndSplineSet
Validated: 1
EndChar
StartChar: d
Encoding: 291 100 35
Width: 530
Flags: W
HStem: -92 21G<457.5 473> 635 56<190.054 293.419>
VStem: 61 76<276.725 500.982> 175 48<360.108 480.307> 449 36<-91.8257 298.88>
LayerCount: 2
Fore
SplineSet
212 635 m 0
 204 635 190 632 190 624 c 0
 190 583 228 552 271 543 c 0
 280 541 291 538 291 529 c 0
 291 520 282 514 274 510 c 0
 245 494 223 444 223 409 c 0
 223 389 237 350 237 341 c 0
 237 332 230 328 223 328 c 16
 214 328 208 339 204 347 c 0
 190 372 175 417 175 477 c 0
 175 490 186 522 186 529 c 0
 186 537 166 557 164 550 c 0
 146 490 137 445 137 384 c 0
 137 270 201 180 282 132 c 0
 290 127 292 124 292 112 c 0
 292 41 329 -30 349 -55 c 0
 356 -63 358 -67 358 -76 c 0
 358 -84 353 -87 343 -87 c 0
 308 -87 61 161 61 366 c 0
 61 458 97 571 163 659 c 0
 175 675 191 691 205 691 c 0
 222 691 242 676 299 676 c 2
 435 676 l 2
 468 676 485 670 485 657 c 2
 485 -46 l 18
 485 -78 481 -92 465 -92 c 0
 450 -92 449 -65 449 -47 c 18
 449 100 l 2
 449 294 423 635 212 635 c 0
EndSplineSet
Validated: 1
EndChar
StartChar: e
Encoding: 292 101 36
Width: 585
VWidth: 0
Flags: W
HStem: -82 41<209.794 501.959> 270 81<125.713 456.453> 635 41<59.0664 389.878>
VStem: 59 63<51.5332 266.541> 59 39<387.046 499.895> 463 63<359.927 573.812> 498 28<119.017 201.288>
LayerCount: 2
Fore
SplineSet
498 676 m 2xea
 515 676 526 668 526 657 c 10
 526 166 l 18
 526 142 525 119 512 119 c 8
 502 119 500 130 498 139 c 0
 486 211 469 270 407 270 c 18
 182 270 l 2
 141 270 122 267 122 226 c 0xf2
 122 -15 179 -41 360 -41 c 10
 474 -41 l 26
 487 -41 502 -51 502 -62 c 8
 502 -75 488 -82 475 -82 c 26
 85 -82 l 18
 67 -82 59 -71 59 -52 c 10
 59 454 l 18
 59 484 64 500 77 500 c 0
 89 500 95 484 98 467 c 0
 109 398 116 351 178 351 c 10
 362 351 l 18
 442 351 463 359 463 404 c 10
 463 472 l 2xec
 463 572 437 635 260 635 c 2
 94 635 l 2
 69 635 59 643 59 657 c 0
 59 670 76 676 109 676 c 2
 498 676 l 2xea
EndSplineSet
Validated: 1
EndChar
StartChar: f
Encoding: 102 102 37
Width: 800
Flags: W
HStem: -92 22G<83 97> -92 22G<83 97> 338 87<309 481> 635 56<485 557> 635 41<176 357>
VStem: 55 39<409 530> 76 481<-62 408> 76 37<-92 32> 536 39<178 265>
LayerCount: 2
Fore
SplineSet
67 513 m 2xac
 67 768 l 2
 67 782 75 818 105 818 c 0x34
 118 818 189 799 230 799 c 2
 488 799 l 2x2c
 580 799 643 818 675 818 c 0
 698 818 727 813 727 792 c 0
 727 772 692 753 675 746 c 0
 579 700 484 600 397 473 c 1
 690 473 l 2
 704 473 720 464 720 451 c 0x32
 725 344 729 272 742 200 c 0
 743 196 743 191 743 185 c 0
 743 168 736 150 722 150 c 0
 707 150 695 168 692 185 c 0
 675 287 616 360 556 360 c 2
 328 360 l 1
 241 201 158 16 142 -160 c 0x3180
 141 -179 131 -199 112 -199 c 0
 96 -199 94 -177 94 -160 c 0xb2
 94 218 297 578 469 724 c 0
 470 725 471 727 471 728 c 0
 471 737 449 746 434 746 c 2
 319 746 l 2
 193 746 140 642 118 516 c 0
 112 490 107 452 90 452 c 0
 74 452 67 490 67 513 c 2xac
EndSplineSet
Validated: 1
EndChar
StartChar: g
Encoding: 103 103 38
Width: 730
Flags: W
HStem: -92 22G<245 256> -92 22G<245 256> 635 41<162 315 419 498> 671 20G<58 75>
VStem: 41 39<409 530> 390 113<263 500>
LayerCount: 2
Fore
SplineSet
371 746 m 2xac
 313 746 l 2xac
 186 746 134 642 112 516 c 0
 107 490 101 452 84 452 c 0
 67 452 62 490 62 513 c 2
 62 768 l 2
 62 782 70 818 99 818 c 0x1c
 112 818 184 799 224 799 c 2
 605 799 l 2
 627 799 657 795 657 774 c 0
 657 753 618 750 605 748 c 0
 575 744 550 742 550 727 c 0
 550 724 552 717 557 711 c 0
 596 656 662 553 662 439 c 8
 662 174 471 -50 375 -176 c 0
 363 -190 350 -199 332 -199 c 8
 323 -199 315 -190 315 -181 c 16
 315 -171 319 -162 328 -150 c 0
 420 -23 515 116 515 309 c 8
 515 474 495 603 418 720 c 0
 413 727 391 746 371 746 c 2xac
EndSplineSet
Validated: 1
EndChar
StartChar: h
Encoding: 295 104 39
Width: 572
Flags: W
HStem: -82 34<27.0512 103.064> 343 56<373.5 430.722> 635 41<36.123 138.987 245.112 421.995> 733 20G<477.5 501.5>
VStem: 276 97<223.099 342.372> 423 90<599.162 726.5>
LayerCount: 2
Fore
SplineSet
431 394 m 0
 438 382 449 366 449 356 c 0
 449 344 433 343 419 343 c 0
 413 343 408 343 402 343 c 0
 384 343 373 332 373 319 c 0
 373 155 231 23 162 -68 c 0
 153 -79 143 -82 130 -82 c 2
 58 -82 l 2
 46 -82 26 -79 26 -68 c 0
 26 -60 44 -53 74 -48 c 0
 145 -36 276 195 276 343 c 0
 276 472 190 635 71 635 c 0
 55 635 36 643 36 657 c 0
 36 670 53 676 86 676 c 10
 347 676 l 18
 448 676 462 753 493 753 c 0
 510 753 513 734 513 719 c 0
 513 637 497 601 456 541 c 0
 445 525 426 507 419 507 c 0
 409 507 408 521 408 532 c 16
 408 542 423 572 423 600 c 0
 423 626 422 635 382 635 c 10
 265 635 l 18
 249 635 245 626 245 611 c 0
 245 555 317 485 351 429 c 0
 365 404 383 399 393 399 c 2
 406 399 l 2
 423 399 425 404 431 394 c 0
EndSplineSet
Validated: 1
EndChar
StartChar: i
Encoding: 296 105 40
Width: 436
Flags: W
HStem: -92 21G<201 216.5> 571 105<120.962 187.419 255.001 291.865> 671 20G<58.5 75> 671 20G<58.5 75>
VStem: 41 39<409.513 519.37> 189 123<452.006 501.296> 189 66<510.623 570.985> 189 36<-91.8257 253.775>
LayerCount: 2
Fore
SplineSet
255 550 m 0xca
 255 542 271 505 298 498 c 0
 304 496 312 491 312 483 c 16xcc
 312 471 299 462 293 455 c 0
 241 393 225 210 225 49 c 18
 225 -47 l 10
 225 -65 224 -92 209 -92 c 0
 193 -92 189 -78 189 -46 c 10xc9
 189 537 l 2
 189 550 181 571 171 571 c 0xca
 146 571 97 555 80 458 c 0
 76 438 71 409 58 409 c 0
 45 409 41 438 41 456 c 2
 41 652 l 2
 41 663 47 691 70 691 c 0xaa
 80 691 135 676 166 676 c 10
 362 676 l 18
 386 676 399 673 399 660 c 0
 399 656 369 619 349 544 c 8
 347 537 346 528 337 528 c 8
 303 528 272 571 263 571 c 0
 256 571 255 559 255 550 c 0xca
EndSplineSet
Validated: 1
EndChar
StartChar: j
Encoding: 297 106 41
Width: 588
VWidth: 0
Flags: W
HStem: -82 31<231.36 323.968> 600 76<241.957 397.472> 635 41<59.0727 149.734> 676 20G<511.5 527>
VStem: 78 49<65.7969 443.649> 498 37<306.375 456.145>
LayerCount: 2
Fore
SplineSet
78 316 m 2xcc
 78 409 99 518 146 600 c 0xcc
 148 604 150 608 150 612 c 0
 150 628 127 635 94 635 c 0
 70 635 59 643 59 657 c 0
 59 670 76 676 109 676 c 2xac
 341 676 l 2xcc
 452 676 466 630 483 630 c 0
 494 630 503 696 520 696 c 0x9c
 534 696 535 673 535 658 c 2
 535 412 l 2
 535 364 523 299 508 299 c 8
 499 299 498 311 498 322 c 0
 498 453 450 600 319 600 c 8
 173 600 127 424 127 278 c 2
 127 206 l 2
 127 72 177 -51 295 -51 c 0
 305 -51 324 -55 324 -67 c 0
 324 -78 313 -82 299 -82 c 10
 96 -82 l 18
 85 -82 78 -73 78 -48 c 2
 78 316 l 2xcc
EndSplineSet
Validated: 1
EndChar
StartChar: k
Encoding: 107 107 42
Width: 750
Flags: W
HStem: -92 22G<258 270> -92 22G<258 270> 635 41<155 323 416 495> 671 20G<138 155>
VStem: 26 76<216 487> 251 37<70 213> 438 60<217 433>
LayerCount: 2
Fore
SplineSet
163 452 m 0x2e
 163 282 173 155 251 12 c 0
 269 -21 294 -51 304 -51 c 0
 315 -51 346 32 358 107 c 0
 361 136 369 200 386 200 c 0
 402 200 406 170 406 161 c 0
 406 70 406 -75 406 -164 c 0
 406 -184 393 -199 372 -199 c 0
 361 -199 302 -142 273 -116 c 0
 148 3 65 217 65 384 c 0
 65 505 105 683 179 789 c 0
 182 791 203 818 218 818 c 0x9e
 247 818 278 799 326 799 c 10
 624 799 l 2
 646 799 676 795 676 774 c 0
 676 753 637 750 624 748 c 0
 594 744 569 742 569 727 c 0
 569 724 571 717 576 711 c 0
 615 656 680 523 680 393 c 0
 680 239 640 136 543 20 c 0
 532 6 519 -4 501 -4 c 8
 491 -4 484 6 484 15 c 16
 484 25 491 33 501 45 c 0
 558 118 601 198 601 309 c 0
 601 478 528 603 451 720 c 0
 446 727 424 746 404 746 c 2
 265 746 l 2
 235 746 233 741 233 730 c 0
 233 728 233 726 233 724 c 0
 233 700 276 685 311 675 c 0
 319 673 329 665 329 655 c 16
 329 639 316 633 304 630 c 0
 216 608 163 543 163 452 c 0x2e
EndSplineSet
Validated: 1
EndChar
StartChar: n
Encoding: 110 110 45
Width: 680
Flags: W
HStem: -92 22G<36 47> -92 22G<36 47>
VStem: 12 170<573 664> 127 97<201 408> 346 60<425 589>
LayerCount: 2
Fore
SplineSet
232 285 m 0x98
 232 453 200 628 128 723 c 0
 115 740 83 758 83 776 c 0
 83 793 104 801 146 801 c 10
 364 801 l 26
 387 801 419 797 419 779 c 0
 419 765 382 754 352 748 c 0
 327 743 304 723 304 698 c 0xa8
 304 636 365 528 434 446 c 0
 443 435 449 431 455 431 c 0
 462 431 467 436 473 446 c 0
 475 452 517 515 517 584 c 0
 517 687 504 730 504 744 c 0
 504 758 504 771 518 771 c 0
 534 771 596 646 596 558 c 0
 596 429 517 247 484 247 c 0
 471 247 392 327 354 423 c 0
 349 437 336 427 345 398 c 0
 353 374 358 350 358 314 c 0
 358 201 257 -1 156 -172 c 0
 146 -187 136 -197 119 -197 c 24
 109 -197 104 -180 109 -171 c 0
 178 -41 232 93 232 285 c 0x98
EndSplineSet
Validated: 1
EndChar
StartChar: p
Encoding: 112 112 47
Width: 780
Flags: W
HStem: -92 22G<391 401> -92 22G<391 401> 635 41<8 65 116 378>
VStem: 278 79<59 369>
LayerCount: 2
Fore
SplineSet
62 778 m 0xb0
 63 795 84 799 101 799 c 2
 591 799 l 2
 612 799 668 818 690 818 c 0
 691 818 694 818 694 818 c 0
 708 818 714 803 714 786 c 0
 714 772 713 766 705 753 c 0
 593 558 515 405 515 168 c 0
 515 35 527 -47 575 -172 c 0x70
 579 -183 579 -199 569 -199 c 0
 553 -199 547 -193 534 -177 c 0
 474 -103 414 23 414 166 c 0
 414 259 419 339 434 412 c 1
 366 404 340 395 301 365 c 0
 283 350 276 318 248 318 c 0
 236 318 233 336 233 344 c 0
 233 505 190 713 97 747 c 0
 80 753 62 760 62 777 c 0
 62 778 l 0xb0
443 454 m 1
 462 539 496 618 544 714 c 0
 546 719 547 724 547 728 c 0
 547 738 541 746 532 746 c 2
 220 746 l 2
 201 746 183 744 183 738 c 0
 183 737 183 736 185 734 c 0
 259 668 319 579 337 465 c 0
 340 452 346 440 356 443 c 0
 374 447 410 454 443 454 c 1
EndSplineSet
Validated: 1
EndChar
StartChar: u
Encoding: 308 117 52
Width: 562
VWidth: 0
Flags: W
HStem: -82 76<175.257 333.141> 200 106<206.718 314.816> 645 31<212.014 308.006>
VStem: 36 40<132.132 283.953> 184 154<222.688 283.215> 446 69<155.904 481.755>
LayerCount: 2
Fore
SplineSet
338 257 m 0
 338 225 286 200 243 200 c 8
 214 200 184 216 184 245 c 16
 184 280 231 306 274 306 c 16
 308 306 338 291 338 257 c 0
515 335 m 0
 515 241 506 103 471 40 c 0
 461 22 408 -35 389 -46 c 0
 372 -56 314 -82 281 -82 c 2
 232 -82 l 2
 109 -82 62 9 62 9 c 1
 50 26 42 44 39 69 c 16
 37 84 36 101 36 118 c 0
 36 151 39 182 39 182 c 2
 39 229 51 295 66 295 c 8
 75 295 76 283 76 272 c 0
 76 141 123 -6 254 -6 c 8
 407 -6 446 189 446 335 c 0
 446 475 385 645 241 645 c 0
 231 645 212 648 212 660 c 0
 212 671 223 676 237 676 c 10
 487 676 l 18
 505 676 528 671 528 659 c 0
 528 647 496 638 487 637 c 0
 469 635 458 627 458 608 c 0
 458 595 515 542 515 335 c 0
EndSplineSet
Validated: 1
EndChar
StartChar: z
Encoding: 313 122 57
Width: 373
Flags: W
HStem: -205 21G<209.5 221> 669 50<46.9199 188.241>
VStem: 194 36<-204.384 26.4636>
LayerCount: 2
Fore
SplineSet
27 681 m 0
 27 696 96 719 167 719 c 0
 259 719 335 646 335 616 c 0
 335 611 330 609 325 609 c 0
 318 609 297 617 270 617 c 0
 212 617 157 587 157 565 c 0
 157 558 163 553 169 553 c 26
 316 553 l 26
 326 553 340 553 340 543 c 0
 340 533 325 523 315 516 c 0
 247 463 228 187 228 -58 c 0
 228 -98 230 -137 230 -174 c 0
 230 -187 226 -205 216 -205 c 0
 203 -205 194 -190 194 -176 c 0
 194 110 122 424 60 514 c 0
 51 527 41 545 41 550 c 0
 41 572 107 614 181 628 c 0
 190 630 198 632 198 639 c 0
 198 647 166 669 53 669 c 0
 43 669 27 671 27 681 c 0
EndSplineSet
Validated: 1
EndChar
StartChar: quoteright
Encoding: 351 8217 95
Width: 326
VWidth: 1048
Flags: W
HStem: 540 257
VStem: 160 140<570.494 634.068>
LayerCount: 2
Fore
SplineSet
34 772 m 0
 26 777 26 784 30 791 c 0
 36 798 44 799 52 797 c 0
 154 761 243 723 273 679 c 0
 290 653 300 634 300 611 c 0
 300 583 251 540 230 540 c 0
 212 540 175 555 160 585 c 0
 132 644 110 715 34 772 c 0
EndSplineSet
Validated: 1
EndChar
